<?xml version="1.0" encoding="UTF-8"?>
<svg width="1080" height="1920" viewBox="0 0 1080 1920" xmlns="http://www.w3.org/2000/svg" role="img">
<defs>
<filter id="glow" x="-20%" y="-20%" width="140%" height="140%">
<feGaussianBlur stdDeviation="2" result="blur"/>
<feMerge><feMergeNode in="blur"/><feMergeNode in="SourceGraphic"/></feMerge>
</filter>
<style><![CDATA[
text{font-family: Inter, "SF Pro Text", "Segoe UI", system-ui, sans-serif;}
.title{font-size:36px;font-weight:700;fill:#e5e7eb;}
.subtitle{font-size:16px;fill:#9ca3af;}
.axis{font-size:14px;fill:#9ca3af;}
.label{font-size:14px;fill:#e5e7eb;}
.small{font-size:12px;fill:#6b7280;}
.grid{stroke:#1f2937;stroke-width:1;stroke-dasharray:6 6;}
.bar{rx:5;ry:5;opacity:0.95;transition:all 0.2s ease;}
.group:hover .bar{opacity:1;filter:url(#glow);}
.group:hover .group-label{fill:#e5e7eb;}
]]></style>
</defs>
<rect width="1080" height="1920" fill="#0b0f14"/>
<text x="90" y="90" class="title">SMB and Mid-Market ERP Competitive Benchmark</text>
<text x="90" y="125" class="subtitle">Scores on 0-5 scale (higher is better)</text>
<rect x="90" y="160" width="14" height="14" rx="3" fill="#7aa2ff"/>
<text x="112" y="172" class="label">Overall</text>
<rect x="310" y="160" width="14" height="14" rx="3" fill="#8b5cf6"/>
<text x="332" y="172" class="label">Automation</text>
<rect x="530" y="160" width="14" height="14" rx="3" fill="#6ecf88"/>
<text x="552" y="172" class="label">Inventory and Manufacturing</text>
<line x1="90" y1="1680.00" x2="1020" y2="1680.00" class="grid"/>
<text x="50" y="1685.00" class="axis">0</text>
<line x1="90" y1="1396.00" x2="1020" y2="1396.00" class="grid"/>
<text x="50" y="1401.00" class="axis">1</text>
<line x1="90" y1="1112.00" x2="1020" y2="1112.00" class="grid"/>
<text x="50" y="1117.00" class="axis">2</text>
<line x1="90" y1="828.00" x2="1020" y2="828.00" class="grid"/>
<text x="50" y="833.00" class="axis">3</text>
<line x1="90" y1="544.00" x2="1020" y2="544.00" class="grid"/>
<text x="50" y="549.00" class="axis">4</text>
<line x1="90" y1="260.00" x2="1020" y2="260.00" class="grid"/>
<text x="50" y="265.00" class="axis">5</text>
<text x="10" y="240" class="axis">Score</text>
<g class="group">
<rect class="bar" x="108.12" y="461.48" width="20" height="1218.52" fill="#7aa2ff">
<title>Busy Accounting - Overall: 4.29</title>
</rect>
<text x="118.12" y="455.48" class="label" text-anchor="middle">4.3</text>
<rect class="bar" x="138.12" y="913.20" width="20" height="766.80" fill="#8b5cf6">
<title>Busy Accounting - Automation: 2.70</title>
</rect>
<text x="148.12" y="907.20" class="label" text-anchor="middle">2.7</text>
<rect class="bar" x="168.12" y="519.86" width="20" height="1160.14" fill="#6ecf88">
<title>Busy Accounting - Inventory and Manufacturing: 4.08</title>
</rect>
<text x="178.12" y="513.86" class="label" text-anchor="middle">4.1</text>
<text x="148.12" y="1710" class="group-label label" text-anchor="middle">Busy</text>
<text x="148.12" y="1726" class="group-label label" text-anchor="middle">Accounting</text>
</g>
<g class="group">
<rect class="bar" x="224.38" y="462.11" width="20" height="1217.89" fill="#7aa2ff">
<title>Zoho Books - Overall: 4.29</title>
</rect>
<text x="234.38" y="456.11" class="label" text-anchor="middle">4.3</text>
<rect class="bar" x="254.38" y="260.00" width="20" height="1420.00" fill="#8b5cf6">
<title>Zoho Books - Automation: 5.00</title>
</rect>
<text x="264.38" y="254.00" class="label" text-anchor="middle">5.0</text>
<rect class="bar" x="284.38" y="632.04" width="20" height="1047.96" fill="#6ecf88">
<title>Zoho Books - Inventory and Manufacturing: 3.69</title>
</rect>
<text x="294.38" y="626.04" class="label" text-anchor="middle">3.7</text>
<text x="264.38" y="1710" class="group-label label" text-anchor="middle">Zoho</text>
<text x="264.38" y="1726" class="group-label label" text-anchor="middle">Books</text>
</g>
<g class="group">
<rect class="bar" x="340.62" y="499.19" width="20" height="1180.81" fill="#7aa2ff">
<title>TallyPrime - Overall: 4.16</title>
</rect>
<text x="350.62" y="493.19" class="label" text-anchor="middle">4.2</text>
<rect class="bar" x="370.62" y="609.32" width="20" height="1070.68" fill="#8b5cf6">
<title>TallyPrime - Automation: 3.77</title>
</rect>
<text x="380.62" y="603.32" class="label" text-anchor="middle">3.8</text>
<rect class="bar" x="400.62" y="590.86" width="20" height="1089.14" fill="#6ecf88">
<title>TallyPrime - Inventory and Manufacturing: 3.83</title>
</rect>
<text x="410.62" y="584.86" class="label" text-anchor="middle">3.8</text>
<text x="380.62" y="1710" class="group-label label" text-anchor="middle">TallyPrime</text>
</g>
<g class="group">
<rect class="bar" x="456.88" y="548.26" width="20" height="1131.74" fill="#7aa2ff">
<title>SAP Business One - Overall: 3.99</title>
</rect>
<text x="466.88" y="542.26" class="label" text-anchor="middle">4.0</text>
<rect class="bar" x="486.88" y="566.72" width="20" height="1113.28" fill="#8b5cf6">
<title>SAP Business One - Automation: 3.92</title>
</rect>
<text x="496.88" y="560.72" class="label" text-anchor="middle">3.9</text>
<rect class="bar" x="516.88" y="376.44" width="20" height="1303.56" fill="#6ecf88">
<title>SAP Business One - Inventory and Manufacturing: 4.59</title>
</rect>
<text x="526.88" y="370.44" class="label" text-anchor="middle">4.6</text>
<text x="496.88" y="1710" class="group-label label" text-anchor="middle">SAP</text>
<text x="496.88" y="1726" class="group-label label" text-anchor="middle">Business One</text>
</g>
<g class="group">
<rect class="bar" x="573.12" y="546.21" width="20" height="1133.79" fill="#7aa2ff">
<title>QuickBooks Online - Overall: 3.99</title>
</rect>
<text x="583.12" y="540.21" class="label" text-anchor="middle">4.0</text>
<rect class="bar" x="603.12" y="509.92" width="20" height="1170.08" fill="#8b5cf6">
<title>QuickBooks Online - Automation: 4.12</title>
</rect>
<text x="613.12" y="503.92" class="label" text-anchor="middle">4.1</text>
<rect class="bar" x="633.12" y="886.22" width="20" height="793.78" fill="#6ecf88">
<title>QuickBooks Online - Inventory and Manufacturing: 2.79</title>
</rect>
<text x="643.12" y="880.22" class="label" text-anchor="middle">2.8</text>
<text x="613.12" y="1710" class="group-label label" text-anchor="middle">QuickBooks</text>
<text x="613.12" y="1726" class="group-label label" text-anchor="middle">Online</text>
</g>
<g class="group">
<rect class="bar" x="689.38" y="557.10" width="20" height="1122.90" fill="#7aa2ff">
<title>Odoo - Overall: 3.95</title>
</rect>
<text x="699.38" y="551.10" class="label" text-anchor="middle">4.0</text>
<rect class="bar" x="719.38" y="524.12" width="20" height="1155.88" fill="#8b5cf6">
<title>Odoo - Automation: 4.07</title>
</rect>
<text x="729.38" y="518.12" class="label" text-anchor="middle">4.1</text>
<rect class="bar" x="749.38" y="600.80" width="20" height="1079.20" fill="#6ecf88">
<title>Odoo - Inventory and Manufacturing: 3.80</title>
</rect>
<text x="759.38" y="594.80" class="label" text-anchor="middle">3.8</text>
<text x="729.38" y="1710" class="group-label label" text-anchor="middle">Odoo</text>
</g>
<g class="group">
<rect class="bar" x="805.62" y="678.27" width="20" height="1001.73" fill="#7aa2ff">
<title>ERPNext - Overall: 3.53</title>
</rect>
<text x="815.62" y="672.27" class="label" text-anchor="middle">3.5</text>
<rect class="bar" x="835.62" y="870.60" width="20" height="809.40" fill="#8b5cf6">
<title>ERPNext - Automation: 2.85</title>
</rect>
<text x="845.62" y="864.60" class="label" text-anchor="middle">2.9</text>
<rect class="bar" x="865.62" y="511.34" width="20" height="1168.66" fill="#6ecf88">
<title>ERPNext - Inventory and Manufacturing: 4.12</title>
</rect>
<text x="875.62" y="505.34" class="label" text-anchor="middle">4.1</text>
<text x="845.62" y="1710" class="group-label label" text-anchor="middle">ERPNext</text>
</g>
<g class="group">
<rect x="903.75" y="230" width="116.25" height="1500" fill="#0f172a" opacity="0.55"/>
<rect x="903.75" y="230" width="116.25" height="1500" fill="none" stroke="#22d3ee" stroke-width="2"/>
<rect class="bar" x="921.88" y="975.21" width="20" height="704.79" fill="#7aa2ff">
<title>ORCHESTRATOR by SKEINA - Overall: 2.48</title>
</rect>
<text x="931.88" y="969.21" class="label" text-anchor="middle">2.5</text>
<rect class="bar" x="951.88" y="646.24" width="20" height="1033.76" fill="#8b5cf6">
<title>ORCHESTRATOR by SKEINA - Automation: 3.64</title>
</rect>
<text x="961.88" y="640.24" class="label" text-anchor="middle">3.6</text>
<rect class="bar" x="981.88" y="470.16" width="20" height="1209.84" fill="#6ecf88">
<title>ORCHESTRATOR by SKEINA - Inventory and Manufacturing: 4.26</title>
</rect>
<text x="991.88" y="464.16" class="label" text-anchor="middle">4.3</text>
<text x="961.88" y="1710" class="group-label label" text-anchor="middle">ORCHESTRATOR</text>
<text x="961.88" y="1726" class="group-label label" text-anchor="middle">by SKEINA</text>
</g>
<text x="90" y="1880" class="small">Overall = average across 18 features. Inventory and Manufacturing = avg(Inventory and Warehouse, Manufacturing and MRP). Methodology: benchmark-report.md.</text>
</svg>