<?xml version="1.0" encoding="UTF-8"?>
<svg width="1920" height="1080" viewBox="0 0 1920 1080" xmlns="http://www.w3.org/2000/svg" role="img">
<defs>
<filter id="glow" x="-20%" y="-20%" width="140%" height="140%">
<feGaussianBlur stdDeviation="2" result="blur"/>
<feMerge><feMergeNode in="blur"/><feMergeNode in="SourceGraphic"/></feMerge>
</filter>
<style><![CDATA[
text{font-family: Inter, "SF Pro Text", "Segoe UI", system-ui, sans-serif;}
.title{font-size:36px;font-weight:700;fill:#e5e7eb;}
.subtitle{font-size:16px;fill:#9ca3af;}
.axis{font-size:14px;fill:#9ca3af;}
.label{font-size:14px;fill:#e5e7eb;}
.small{font-size:12px;fill:#6b7280;}
.grid{stroke:#1f2937;stroke-width:1;stroke-dasharray:6 6;}
.bar{rx:5;ry:5;opacity:0.95;transition:all 0.2s ease;}
.group:hover .bar{opacity:1;filter:url(#glow);}
.group:hover .group-label{fill:#e5e7eb;}
]]></style>
</defs>
<rect width="1920" height="1080" fill="#0b0f14"/>
<text x="120" y="90" class="title">SMB and Mid-Market ERP Competitive Benchmark</text>
<text x="120" y="125" class="subtitle">Scores on 0-5 scale (higher is better)</text>
<rect x="1100" y="110" width="14" height="14" rx="3" fill="#7aa2ff"/>
<text x="1122" y="122" class="label">Overall</text>
<rect x="1280" y="110" width="14" height="14" rx="3" fill="#8b5cf6"/>
<text x="1302" y="122" class="label">Automation</text>
<rect x="1460" y="110" width="14" height="14" rx="3" fill="#6ecf88"/>
<text x="1482" y="122" class="label">Inventory and Manufacturing</text>
<line x1="120" y1="880.00" x2="1840" y2="880.00" class="grid"/>
<text x="80" y="885.00" class="axis">0</text>
<line x1="120" y1="748.00" x2="1840" y2="748.00" class="grid"/>
<text x="80" y="753.00" class="axis">1</text>
<line x1="120" y1="616.00" x2="1840" y2="616.00" class="grid"/>
<text x="80" y="621.00" class="axis">2</text>
<line x1="120" y1="484.00" x2="1840" y2="484.00" class="grid"/>
<text x="80" y="489.00" class="axis">3</text>
<line x1="120" y1="352.00" x2="1840" y2="352.00" class="grid"/>
<text x="80" y="357.00" class="axis">4</text>
<line x1="120" y1="220.00" x2="1840" y2="220.00" class="grid"/>
<text x="80" y="225.00" class="axis">5</text>
<text x="40" y="200" class="axis">Score</text>
<g class="group">
<rect class="bar" x="179.50" y="313.65" width="24" height="566.35" fill="#7aa2ff">
<title>Busy Accounting - Overall: 4.29</title>
</rect>
<text x="191.50" y="307.65" class="label" text-anchor="middle">4.3</text>
<rect class="bar" x="215.50" y="523.60" width="24" height="356.40" fill="#8b5cf6">
<title>Busy Accounting - Automation: 2.70</title>
</rect>
<text x="227.50" y="517.60" class="label" text-anchor="middle">2.7</text>
<rect class="bar" x="251.50" y="340.78" width="24" height="539.22" fill="#6ecf88">
<title>Busy Accounting - Inventory and Manufacturing: 4.08</title>
</rect>
<text x="263.50" y="334.78" class="label" text-anchor="middle">4.1</text>
<text x="227.50" y="910" class="group-label label" text-anchor="middle">Busy</text>
<text x="227.50" y="926" class="group-label label" text-anchor="middle">Accounting</text>
</g>
<g class="group">
<rect class="bar" x="394.50" y="313.94" width="24" height="566.06" fill="#7aa2ff">
<title>Zoho Books - Overall: 4.29</title>
</rect>
<text x="406.50" y="307.94" class="label" text-anchor="middle">4.3</text>
<rect class="bar" x="430.50" y="220.00" width="24" height="660.00" fill="#8b5cf6">
<title>Zoho Books - Automation: 5.00</title>
</rect>
<text x="442.50" y="214.00" class="label" text-anchor="middle">5.0</text>
<rect class="bar" x="466.50" y="392.92" width="24" height="487.08" fill="#6ecf88">
<title>Zoho Books - Inventory and Manufacturing: 3.69</title>
</rect>
<text x="478.50" y="386.92" class="label" text-anchor="middle">3.7</text>
<text x="442.50" y="910" class="group-label label" text-anchor="middle">Zoho</text>
<text x="442.50" y="926" class="group-label label" text-anchor="middle">Books</text>
</g>
<g class="group">
<rect class="bar" x="609.50" y="331.17" width="24" height="548.83" fill="#7aa2ff">
<title>TallyPrime - Overall: 4.16</title>
</rect>
<text x="621.50" y="325.17" class="label" text-anchor="middle">4.2</text>
<rect class="bar" x="645.50" y="382.36" width="24" height="497.64" fill="#8b5cf6">
<title>TallyPrime - Automation: 3.77</title>
</rect>
<text x="657.50" y="376.36" class="label" text-anchor="middle">3.8</text>
<rect class="bar" x="681.50" y="373.78" width="24" height="506.22" fill="#6ecf88">
<title>TallyPrime - Inventory and Manufacturing: 3.83</title>
</rect>
<text x="693.50" y="367.78" class="label" text-anchor="middle">3.8</text>
<text x="657.50" y="910" class="group-label label" text-anchor="middle">TallyPrime</text>
</g>
<g class="group">
<rect class="bar" x="824.50" y="353.98" width="24" height="526.02" fill="#7aa2ff">
<title>SAP Business One - Overall: 3.99</title>
</rect>
<text x="836.50" y="347.98" class="label" text-anchor="middle">4.0</text>
<rect class="bar" x="860.50" y="362.56" width="24" height="517.44" fill="#8b5cf6">
<title>SAP Business One - Automation: 3.92</title>
</rect>
<text x="872.50" y="356.56" class="label" text-anchor="middle">3.9</text>
<rect class="bar" x="896.50" y="274.12" width="24" height="605.88" fill="#6ecf88">
<title>SAP Business One - Inventory and Manufacturing: 4.59</title>
</rect>
<text x="908.50" y="268.12" class="label" text-anchor="middle">4.6</text>
<text x="872.50" y="910" class="group-label label" text-anchor="middle">SAP</text>
<text x="872.50" y="926" class="group-label label" text-anchor="middle">Business One</text>
</g>
<g class="group">
<rect class="bar" x="1039.50" y="353.03" width="24" height="526.97" fill="#7aa2ff">
<title>QuickBooks Online - Overall: 3.99</title>
</rect>
<text x="1051.50" y="347.03" class="label" text-anchor="middle">4.0</text>
<rect class="bar" x="1075.50" y="336.16" width="24" height="543.84" fill="#8b5cf6">
<title>QuickBooks Online - Automation: 4.12</title>
</rect>
<text x="1087.50" y="330.16" class="label" text-anchor="middle">4.1</text>
<rect class="bar" x="1111.50" y="511.06" width="24" height="368.94" fill="#6ecf88">
<title>QuickBooks Online - Inventory and Manufacturing: 2.79</title>
</rect>
<text x="1123.50" y="505.06" class="label" text-anchor="middle">2.8</text>
<text x="1087.50" y="910" class="group-label label" text-anchor="middle">QuickBooks</text>
<text x="1087.50" y="926" class="group-label label" text-anchor="middle">Online</text>
</g>
<g class="group">
<rect class="bar" x="1254.50" y="358.09" width="24" height="521.91" fill="#7aa2ff">
<title>Odoo - Overall: 3.95</title>
</rect>
<text x="1266.50" y="352.09" class="label" text-anchor="middle">4.0</text>
<rect class="bar" x="1290.50" y="342.76" width="24" height="537.24" fill="#8b5cf6">
<title>Odoo - Automation: 4.07</title>
</rect>
<text x="1302.50" y="336.76" class="label" text-anchor="middle">4.1</text>
<rect class="bar" x="1326.50" y="378.40" width="24" height="501.60" fill="#6ecf88">
<title>Odoo - Inventory and Manufacturing: 3.80</title>
</rect>
<text x="1338.50" y="372.40" class="label" text-anchor="middle">3.8</text>
<text x="1302.50" y="910" class="group-label label" text-anchor="middle">Odoo</text>
</g>
<g class="group">
<rect class="bar" x="1469.50" y="414.41" width="24" height="465.59" fill="#7aa2ff">
<title>ERPNext - Overall: 3.53</title>
</rect>
<text x="1481.50" y="408.41" class="label" text-anchor="middle">3.5</text>
<rect class="bar" x="1505.50" y="503.80" width="24" height="376.20" fill="#8b5cf6">
<title>ERPNext - Automation: 2.85</title>
</rect>
<text x="1517.50" y="497.80" class="label" text-anchor="middle">2.9</text>
<rect class="bar" x="1541.50" y="336.82" width="24" height="543.18" fill="#6ecf88">
<title>ERPNext - Inventory and Manufacturing: 4.12</title>
</rect>
<text x="1553.50" y="330.82" class="label" text-anchor="middle">4.1</text>
<text x="1517.50" y="910" class="group-label label" text-anchor="middle">ERPNext</text>
</g>
<g class="group">
<rect x="1625.00" y="190" width="215.00" height="740" fill="#0f172a" opacity="0.55"/>
<rect x="1625.00" y="190" width="215.00" height="740" fill="none" stroke="#22d3ee" stroke-width="2"/>
<rect class="bar" x="1684.50" y="552.42" width="24" height="327.58" fill="#7aa2ff">
<title>ORCHESTRATOR by SKEINA - Overall: 2.48</title>
</rect>
<text x="1696.50" y="546.42" class="label" text-anchor="middle">2.5</text>
<rect class="bar" x="1720.50" y="399.52" width="24" height="480.48" fill="#8b5cf6">
<title>ORCHESTRATOR by SKEINA - Automation: 3.64</title>
</rect>
<text x="1732.50" y="393.52" class="label" text-anchor="middle">3.6</text>
<rect class="bar" x="1756.50" y="317.68" width="24" height="562.32" fill="#6ecf88">
<title>ORCHESTRATOR by SKEINA - Inventory and Manufacturing: 4.26</title>
</rect>
<text x="1768.50" y="311.68" class="label" text-anchor="middle">4.3</text>
<text x="1732.50" y="910" class="group-label label" text-anchor="middle">ORCHESTRATOR</text>
<text x="1732.50" y="926" class="group-label label" text-anchor="middle">by SKEINA</text>
</g>
<text x="120" y="1040" class="small">Overall = average across 18 features. Inventory and Manufacturing = avg(Inventory and Warehouse, Manufacturing and MRP). Methodology: benchmark-report.md.</text>
</svg>